<?xml version="1.0" encoding="UTF-8" standalone="no"?>
<svg
   xmlns:dc="http://purl.org/dc/elements/1.1/"
   xmlns:cc="http://creativecommons.org/ns#"
   xmlns:rdf="http://www.w3.org/1999/02/22-rdf-syntax-ns#"
   xmlns:svg="http://www.w3.org/2000/svg"
   xmlns="http://www.w3.org/2000/svg"
   xmlns:sodipodi="http://sodipodi.sourceforge.net/DTD/sodipodi-0.dtd"
   xmlns:inkscape="http://www.inkscape.org/namespaces/inkscape"
   width="159.01497mm"
   height="55.826736mm"
   viewBox="0 0 159.01497 55.826736"
   version="1.1"
   id="svg41"
   inkscape:version="1.0.1 (3bc2e813f5, 2020-09-07)"
   sodipodi:docname="logo.svg">
  <defs
     id="defs35" />
  <sodipodi:namedview
     id="base"
     pagecolor="#ffffff"
     bordercolor="#666666"
     borderopacity="1.0"
     inkscape:pageopacity="0.0"
     inkscape:pageshadow="2"
     inkscape:zoom="0.35"
     inkscape:cx="303.35683"
     inkscape:cy="316.92792"
     inkscape:document-units="mm"
     inkscape:current-layer="layer1"
     inkscape:document-rotation="0"
     showgrid="false"
     inkscape:window-width="1600"
     inkscape:window-height="1024"
     inkscape:window-x="76"
     inkscape:window-y="0"
     inkscape:window-maximized="0" />
  <metadata
     id="metadata38">
    <rdf:RDF>
      <cc:Work
         rdf:about="">
        <dc:format>image/svg+xml</dc:format>
        <dc:type
           rdf:resource="http://purl.org/dc/dcmitype/StillImage" />
        <dc:title></dc:title>
      </cc:Work>
    </rdf:RDF>
  </metadata>
  <g
     inkscape:label="Ebene 1"
     inkscape:groupmode="layer"
     id="layer1"
     transform="translate(-25.570173,-64.312822)">
    <path
       style="fill:#FFFFFF;stroke-width:0.264583"
       d="m 47.097163,119.85086 c -3.57742,-0.59793 -6.991,-2.39616 -9.74765,-5.13492 -4.32638,-4.29829 -5.13837,-8.3082 -5.15675,-25.466141 l -0.008,-7.739062 h -3.3073 -3.30729 v -4.101045 -4.10104 h 3.30729 3.3073 v -4.49792 -4.49791 h 4.36562 4.36563 v 4.49791 4.49792 h 6.08541 6.08542 v 4.10104 4.101045 h -6.09358 -6.09358 l 0.0743,11.310937 0.0743,11.310936 0.70648,1.5072 c 0.90123,1.92267 2.74281,3.76425 4.66548,4.66548 1.28638,0.60298 1.85901,0.70649 3.9084,0.70649 2.29677,0 2.50099,-0.0495 4.69604,-1.13714 2.94279,-1.45821 5.88325,-4.21768 10.30539,-9.67107 6.51994,-8.040396 8.7996,-10.447009 12.23071,-12.911817 3.93356,-2.825763 6.78318,-3.784926 11.24479,-3.784926 2.43581,0 3.4385,0.12242 5.02708,0.61376 5.66141,1.751054 9.949787,5.330407 17.319287,14.455775 6.26547,7.758278 9.86617,10.991718 13.45361,12.081368 2.53439,0.7698 4.56968,0.5848 7.17424,-0.6521 3.88965,-1.84719 6.25838,-3.97226 13.77199,-12.35531 7.34419,-8.194024 10.22276,-10.77894 14.03914,-12.606935 6.49248,-3.109812 14.17888,-1.641679 19.5945,3.742629 1.74786,1.737751 2.36879,2.589725 3.37927,4.636722 1.91204,3.873341 2.01015,4.668425 2.01545,16.332274 l 0.005,10.12031 h -4.48902 -4.48902 l -0.075,-10.2526 -0.075,-10.252608 -0.70649,-1.507199 c -1.84645,-3.939173 -6.58755,-6.359245 -10.10814,-5.159658 -2.85869,0.974053 -5.72773,3.542974 -12.76461,11.429355 -2.33722,2.61938 -5.52964,5.9837 -7.09425,7.47629 -8.82622,8.41985 -17.39098,10.6075 -25.68276,6.56002 -4.61536,-2.25266 -7.87731,-5.25894 -14.45076,-13.31761 -7.834457,-9.604611 -11.510017,-12.492657 -15.899147,-12.492657 -4.04982,0 -7.93405,3.063791 -14.97582,11.812587 -5.84281,7.25917 -9.24121,10.62804 -13.03447,12.92116 -4.22665,2.55512 -9.03877,3.52806 -13.64322,2.75846 z m 115.130007,-0.12803 c -2.40587,-0.53067 -5.68036,-2.12706 -7.65424,-3.7316 -1.60085,-1.30132 -4.3843,-4.68637 -4.3843,-5.33189 0,-0.3622 6.34706,-7.62875 6.5799,-7.53312 0.0696,0.0286 0.33306,0.71966 0.58556,1.53576 0.84143,2.71948 3.43325,5.27954 6.16695,6.09136 2.74704,0.81579 5.93747,0.26608 8.32573,-1.43451 l 0.83144,-0.59204 v 5.16714 5.16714 l -1.38906,0.42941 c -2.00042,0.61839 -6.75869,0.7404 -9.06198,0.23235 z m -93.265617,-2.7919 v -2.67981 l 1.65364,-1.75663 c 0.90951,-0.96615 2.77938,-3.15352 4.15528,-4.86082 1.37589,-1.7073 2.59628,-3.10418 2.71198,-3.10418 0.11569,0 0.21035,3.39328 0.21035,7.54062 v 7.54063 h -4.36563 -4.36562 z M 125.5248,108.2501 c -1.47945,-0.57837 -3.34925,-1.91737 -4.89959,-3.50868 l -1.12072,-1.15034 5.42388,-5.417774 c 5.93718,-5.930503 5.83104,-5.726882 3.01714,-5.788279 -2.86531,-0.06252 -6.11305,1.626963 -7.77987,4.047112 -1.03868,1.508125 -1.72701,3.434035 -1.72701,4.832101 0,0.4862 -0.0893,0.87942 -0.19844,0.87383 -0.10914,-0.006 -1.73707,-1.86797 -3.61762,-4.138622 l -3.41919,-4.128465 0.57918,-1.091774 c 2.18962,-4.127469 6.52919,-7.465394 11.41857,-8.782977 2.09884,-0.565591 6.64624,-0.632788 8.73125,-0.129024 2.15397,0.520428 5.58291,2.192457 6.85727,3.343765 2.11594,1.911625 2.81262,4.393488 2.01043,7.162033 -0.43433,1.498981 -0.69106,1.798687 -6.83033,7.973664 -3.50848,3.52888 -6.56303,6.41058 -6.7879,6.40377 -0.22486,-0.007 -0.97054,-0.23196 -1.65705,-0.50034 z M 68.961553,77.938862 v -12.83229 h 4.36562 4.36563 v 9.20833 9.20833 l -1.65365,1.163798 c -0.9095,0.640088 -2.79597,2.270872 -4.19214,3.623961 -1.39618,1.35309 -2.61657,2.460162 -2.71198,2.460162 -0.0954,0 -0.17348,-5.774531 -0.17348,-12.832291 z"
       id="path24" />
  </g>
</svg>
